<svg width="51" height="26" viewBox="0 0 51 26" fill="none" xmlns="http://www.w3.org/2000/svg">
<path d="M0.0400001 25V0.079999H16.28V3.76H4.44V10.16H14.16V13.88H4.44V21.32H16.16V25H0.0400001Z" fill="#6C8298"/>
<path d="M19.68 25V0.079999H26.12C27.5867 0.079999 28.8133 0.213332 29.8 0.479999C30.8133 0.746665 31.6667 1.13333 32.36 1.64C33.08 2.14667 33.72 2.77333 34.28 3.52C34.84 4.26667 35.3067 5.12 35.68 6.08C36.08 7.01333 36.3867 8.02667 36.6 9.12C36.8133 10.2133 36.92 11.4133 36.92 12.72C36.8667 14.6133 36.6133 16.32 36.16 17.84C35.7333 19.3333 35.0667 20.6133 34.16 21.68C33.28 22.7467 32.1333 23.5733 30.72 24.16C29.3067 24.72 27.6133 25 25.64 25H19.68ZM24.08 21.48H25.52C27.2267 21.48 28.5867 21.12 29.6 20.4C30.64 19.6533 31.3867 18.6267 31.84 17.32C32.2933 16.0133 32.5067 14.4933 32.48 12.76C32.48 10.92 32.28 9.32 31.88 7.96C31.5067 6.6 30.84 5.54667 29.88 4.8C28.92 4.05333 27.6133 3.68 25.96 3.68H24.08V21.48ZM47.56 25.48C46.7067 25.48 45.9867 25.1867 45.4 24.6C44.8133 24.0133 44.52 23.3067 44.52 22.48C44.52 21.6533 44.8133 20.9467 45.4 20.36C45.9867 19.7733 46.7067 19.48 47.56 19.48C48.3867 19.48 49.0933 19.7733 49.68 20.36C50.2667 20.9467 50.56 21.6533 50.56 22.48C50.56 23.3067 50.2667 24.0133 49.68 24.6C49.0933 25.1867 48.3867 25.48 47.56 25.48Z" fill="#141414"/>
</svg>
