<svg width="157" height="35" viewBox="0 0 157 35" fill="none" xmlns="http://www.w3.org/2000/svg">
<path d="M0.0400001 27V2.08H16.28V5.76H4.44V12.16H14.16V15.88H4.44V23.32H16.16V27H0.0400001Z" fill="#6C8298"/>
<path d="M19.68 27V2.08H26.12C27.5867 2.08 28.8133 2.21333 29.8 2.48C30.8133 2.74667 31.6667 3.13333 32.36 3.64C33.08 4.14667 33.72 4.77333 34.28 5.52C34.84 6.26667 35.3067 7.12 35.68 8.08C36.08 9.01333 36.3867 10.0267 36.6 11.12C36.8133 12.2133 36.92 13.4133 36.92 14.72C36.8667 16.6133 36.6133 18.32 36.16 19.84C35.7333 21.3333 35.0667 22.6133 34.16 23.68C33.28 24.7467 32.1333 25.5733 30.72 26.16C29.3067 26.72 27.6133 27 25.64 27H19.68ZM24.08 23.48H25.52C27.2267 23.48 28.5867 23.12 29.6 22.4C30.64 21.6533 31.3867 20.6267 31.84 19.32C32.2933 18.0133 32.5067 16.4933 32.48 14.76C32.48 12.92 32.28 11.32 31.88 9.96C31.5067 8.6 30.84 7.54667 29.88 6.8C28.92 6.05333 27.6133 5.68 25.96 5.68H24.08V23.48ZM47.96 27.4C46.3067 27.4 44.8 27 43.44 26.2C42.1067 25.3733 41.0533 24.2267 40.28 22.76C39.5067 21.2933 39.12 19.6 39.12 17.68C39.12 15.84 39.5067 14.1867 40.28 12.72C41.0533 11.2533 42.1067 10.0933 43.44 9.24C44.8 8.38667 46.3067 7.96 47.96 7.96C49.64 7.96 51.1467 8.38667 52.48 9.24C53.84 10.0933 54.9067 11.2533 55.68 12.72C56.48 14.1867 56.88 15.84 56.88 17.68C56.88 19.6 56.48 21.2933 55.68 22.76C54.9067 24.2267 53.84 25.3733 52.48 26.2C51.1467 27 49.64 27.4 47.96 27.4ZM47.96 23.8C48.84 23.8 49.6 23.5467 50.24 23.04C50.88 22.5067 51.3867 21.7867 51.76 20.88C52.16 19.9467 52.36 18.88 52.36 17.68C52.36 16.4267 52.16 15.3467 51.76 14.44C51.3867 13.5333 50.88 12.84 50.24 12.36C49.6 11.8533 48.84 11.6 47.96 11.6C47.16 11.6 46.4267 11.8533 45.76 12.36C45.12 12.84 44.6 13.5333 44.2 14.44C43.8267 15.3467 43.64 16.4267 43.64 17.68C43.64 18.88 43.8267 19.9467 44.2 20.88C44.5733 21.7867 45.08 22.5067 45.72 23.04C46.3867 23.5467 47.1333 23.8 47.96 23.8ZM60.52 27V23.44H65.76V3.72H60.76V0.16H70.32V23.44H75.52V27H60.52ZM83.04 34.04C82.16 34.04 81.36 33.88 80.64 33.56C79.9467 33.2667 79.2667 32.8533 78.6 32.32L80.16 29.2L80.32 28.84L80.68 29C80.76 29.2133 80.8533 29.4133 80.96 29.6C81.0933 29.7867 81.3333 30 81.68 30.24C81.8667 30.3467 82.0667 30.4267 82.28 30.48C82.52 30.5333 82.7733 30.56 83.04 30.56C83.5733 30.56 84.0267 30.4133 84.4 30.12C84.8 29.8267 85.16 29.3733 85.48 28.76C85.8267 28.1467 86.16 27.36 86.48 26.4L90.52 15C90.92 13.8533 91.2533 12.7467 91.52 11.68C91.8133 10.6133 91.9867 9.52 92.04 8.4H96.24C96.1333 9.6 95.8533 10.8667 95.4 12.2C94.9467 13.5067 94.4933 14.7733 94.04 16L89.44 28.64C88.6933 30.6133 87.7867 32 86.72 32.8C85.68 33.6267 84.4533 34.04 83.04 34.04ZM79.24 8.4H83.76L89.24 22.6L86.88 27.44L79.24 8.4ZM100.2 27V8.4H104.72V10.96C105.173 10.3733 105.667 9.85333 106.2 9.4C106.733 8.94667 107.32 8.6 107.96 8.36C108.627 8.09333 109.333 7.96 110.08 7.96C111.173 7.96 112.173 8.22667 113.08 8.76C113.987 9.26667 114.72 10.0933 115.28 11.24C115.84 12.3867 116.12 13.8933 116.12 15.76V27H111.6V15.84C111.6 14.8 111.493 13.96 111.28 13.32C111.067 12.68 110.747 12.2133 110.32 11.92C109.92 11.6 109.44 11.44 108.88 11.44C108.373 11.44 107.867 11.5467 107.36 11.76C106.88 11.9467 106.44 12.24 106.04 12.64C105.64 13.04 105.32 13.52 105.08 14.08C104.84 14.6133 104.72 15.2267 104.72 15.92V27H100.2ZM120.2 27V8.4H124.72V10.96C125.173 10.3733 125.667 9.85333 126.2 9.4C126.733 8.94667 127.32 8.6 127.96 8.36C128.627 8.09333 129.333 7.96 130.08 7.96C131.173 7.96 132.173 8.22667 133.08 8.76C133.987 9.26667 134.72 10.0933 135.28 11.24C135.84 12.3867 136.12 13.8933 136.12 15.76V27H131.6V15.84C131.6 14.8 131.493 13.96 131.28 13.32C131.067 12.68 130.747 12.2133 130.32 11.92C129.92 11.6 129.44 11.44 128.88 11.44C128.373 11.44 127.867 11.5467 127.36 11.76C126.88 11.9467 126.44 12.24 126.04 12.64C125.64 13.04 125.32 13.52 125.08 14.08C124.84 14.6133 124.72 15.2267 124.72 15.92V27H120.2ZM145.92 27.48C143.867 27.48 142.267 27 141.12 26.04C140 25.0533 139.44 23.7867 139.44 22.24C139.44 21.2533 139.653 20.3467 140.08 19.52C140.533 18.6667 141.2 17.9333 142.08 17.32C142.96 16.7067 144.053 16.24 145.36 15.92C146.667 15.5733 148.16 15.4 149.84 15.4C150.053 15.4 150.32 15.4 150.64 15.4C150.96 15.4 151.307 15.4133 151.68 15.44C152.053 15.44 152.4 15.4667 152.72 15.52L152.84 18.64C152.573 18.6133 152.253 18.6 151.88 18.6C151.507 18.5733 151.12 18.56 150.72 18.56C150.347 18.5333 150.027 18.52 149.76 18.52C148.693 18.52 147.787 18.6 147.04 18.76C146.32 18.92 145.733 19.1467 145.28 19.44C144.827 19.7067 144.493 20.04 144.28 20.44C144.067 20.8133 143.96 21.2267 143.96 21.68C143.96 22.1067 144.027 22.4667 144.16 22.76C144.32 23.0533 144.52 23.2933 144.76 23.48C145.027 23.64 145.333 23.76 145.68 23.84C146.027 23.92 146.4 23.96 146.8 23.96C147.6 23.96 148.293 23.84 148.88 23.6C149.493 23.3333 150 22.92 150.4 22.36C150.827 21.8 151.133 21.1067 151.32 20.28C151.533 19.4267 151.64 18.4267 151.64 17.28C151.64 15.7333 151.48 14.5467 151.16 13.72C150.84 12.8933 150.373 12.32 149.76 12C149.147 11.6533 148.373 11.48 147.44 11.48C146.587 11.48 145.773 11.6267 145 11.92C144.253 12.1867 143.52 12.6933 142.8 13.44L140.32 10.72C141.36 9.73333 142.52 9.02667 143.8 8.6C145.08 8.17333 146.36 7.96 147.64 7.96C148.813 7.96 149.907 8.09333 150.92 8.36C151.933 8.62667 152.813 9.08 153.56 9.72C154.333 10.3333 154.933 11.1867 155.36 12.28C155.813 13.3467 156.04 14.68 156.04 16.28V27H151.36V25C151.013 25.4533 150.64 25.84 150.24 26.16C149.84 26.48 149.413 26.7333 148.96 26.92C148.507 27.1067 148.027 27.24 147.52 27.32C147.013 27.4267 146.48 27.48 145.92 27.48Z" fill="#272727"/>
</svg>
