<svg width="125" height="50" viewBox="0 0 125 50" fill="none" xmlns="http://www.w3.org/2000/svg">
<path d="M66.1828 32V18.9091H74.5692V20.897H68.5542V24.451H73.9939V26.4389H68.5542V32H66.1828ZM80.1894 32.1918C79.2306 32.1918 78.3996 31.9808 77.6965 31.5589C76.9933 31.1371 76.4479 30.5469 76.0601 29.7884C75.6766 29.0298 75.4848 28.1435 75.4848 27.1293C75.4848 26.1151 75.6766 25.2266 76.0601 24.4638C76.4479 23.701 76.9933 23.1087 77.6965 22.6868C78.3996 22.2649 79.2306 22.054 80.1894 22.054C81.1482 22.054 81.9791 22.2649 82.6823 22.6868C83.3854 23.1087 83.9287 23.701 84.3122 24.4638C84.7 25.2266 84.8939 26.1151 84.8939 27.1293C84.8939 28.1435 84.7 29.0298 84.3122 29.7884C83.9287 30.5469 83.3854 31.1371 82.6823 31.5589C81.9791 31.9808 81.1482 32.1918 80.1894 32.1918ZM80.2021 30.3381C80.722 30.3381 81.1567 30.1953 81.5061 29.9098C81.8556 29.62 82.1155 29.2322 82.286 28.7464C82.4607 28.2607 82.548 27.7195 82.548 27.1229C82.548 26.522 82.4607 25.9787 82.286 25.4929C82.1155 25.0028 81.8556 24.6129 81.5061 24.3232C81.1567 24.0334 80.722 23.8885 80.2021 23.8885C79.6695 23.8885 79.2263 24.0334 78.8726 24.3232C78.5232 24.6129 78.2611 25.0028 78.0864 25.4929C77.9159 25.9787 77.8307 26.522 77.8307 27.1229C77.8307 27.7195 77.9159 28.2607 78.0864 28.7464C78.2611 29.2322 78.5232 29.62 78.8726 29.9098C79.2263 30.1953 79.6695 30.3381 80.2021 30.3381ZM91.1405 32.1918C90.1604 32.1918 89.3188 31.9766 88.6157 31.5462C87.9168 31.1158 87.3778 30.5213 86.9985 29.7628C86.6235 29 86.436 28.1222 86.436 27.1293C86.436 26.1321 86.6278 25.2521 87.0113 24.4893C87.3948 23.7223 87.936 23.1257 88.6349 22.6996C89.338 22.2692 90.1689 22.054 91.1278 22.054C91.9246 22.054 92.6299 22.201 93.2435 22.495C93.8614 22.7848 94.3536 23.196 94.7201 23.7287C95.0866 24.2571 95.2954 24.875 95.3465 25.5824H93.1349C93.0454 25.1094 92.8323 24.7152 92.4957 24.3999C92.1633 24.0803 91.718 23.9205 91.1597 23.9205C90.6867 23.9205 90.2712 24.0483 89.9133 24.304C89.5553 24.5554 89.2762 24.9176 89.0759 25.3906C88.8799 25.8636 88.7819 26.4304 88.7819 27.0909C88.7819 27.7599 88.8799 28.3352 89.0759 28.8168C89.2719 29.294 89.5468 29.6626 89.9005 29.9226C90.2584 30.1783 90.6782 30.3061 91.1597 30.3061C91.5006 30.3061 91.8053 30.2422 92.0738 30.1143C92.3465 29.9822 92.5745 29.7926 92.7577 29.5455C92.941 29.2983 93.0667 28.9979 93.1349 28.6442H95.3465C95.2911 29.3388 95.0866 29.9545 94.7329 30.4915C94.3792 31.0241 93.8976 31.4418 93.2883 31.7443C92.6789 32.0426 91.963 32.1918 91.1405 32.1918ZM103.504 27.8707V22.1818H105.818V32H103.575V30.255H103.472C103.251 30.8047 102.886 31.2543 102.379 31.6037C101.877 31.9531 101.256 32.1278 100.519 32.1278C99.8758 32.1278 99.3069 31.9851 98.8126 31.6996C98.3225 31.4098 97.939 30.9901 97.662 30.4403C97.385 29.8864 97.2465 29.2173 97.2465 28.4332V22.1818H99.5605V28.0753C99.5605 28.6974 99.7309 29.1918 100.072 29.5582C100.413 29.9247 100.86 30.108 101.414 30.108C101.755 30.108 102.085 30.0249 102.405 29.8587C102.725 29.6925 102.987 29.4453 103.191 29.1172C103.4 28.7848 103.504 28.3693 103.504 27.8707ZM115.958 24.777L113.848 25.0071C113.789 24.794 113.684 24.5938 113.535 24.4062C113.39 24.2188 113.194 24.0675 112.947 23.9524C112.7 23.8374 112.397 23.7798 112.039 23.7798C111.558 23.7798 111.153 23.8842 110.825 24.093C110.501 24.3018 110.341 24.5724 110.345 24.9048C110.341 25.1903 110.446 25.4226 110.659 25.6016C110.876 25.7805 111.234 25.9276 111.733 26.0426L113.407 26.4006C114.336 26.6009 115.027 26.9183 115.478 27.353C115.934 27.7876 116.164 28.3565 116.169 29.0597C116.164 29.6776 115.983 30.223 115.625 30.696C115.272 31.1648 114.779 31.5312 114.149 31.7955C113.518 32.0597 112.794 32.1918 111.975 32.1918C110.774 32.1918 109.806 31.9403 109.073 31.4375C108.34 30.9304 107.904 30.2251 107.763 29.3217L110.019 29.1044C110.122 29.5476 110.339 29.8821 110.671 30.108C111.004 30.3338 111.436 30.4467 111.969 30.4467C112.519 30.4467 112.96 30.3338 113.292 30.108C113.629 29.8821 113.797 29.603 113.797 29.2706C113.797 28.9893 113.688 28.7571 113.471 28.5739C113.258 28.3906 112.926 28.25 112.474 28.152L110.799 27.8004C109.858 27.6044 109.161 27.2741 108.709 26.8097C108.257 26.3409 108.034 25.7486 108.038 25.0327C108.034 24.4276 108.198 23.9034 108.53 23.4602C108.867 23.0128 109.333 22.6676 109.93 22.4247C110.531 22.1776 111.223 22.054 112.007 22.054C113.158 22.054 114.063 22.299 114.724 22.7891C115.389 23.2791 115.8 23.9418 115.958 24.777ZM119.502 32.1406C119.114 32.1406 118.782 32.0043 118.505 31.7315C118.228 31.4588 118.092 31.1264 118.096 30.7344C118.092 30.3509 118.228 30.0227 118.505 29.75C118.782 29.4773 119.114 29.3409 119.502 29.3409C119.877 29.3409 120.203 29.4773 120.48 29.75C120.761 30.0227 120.904 30.3509 120.908 30.7344C120.904 30.9943 120.836 31.2308 120.704 31.4439C120.576 31.657 120.405 31.8274 120.192 31.9553C119.984 32.0788 119.753 32.1406 119.502 32.1406Z" fill="#292929"/>
<circle cx="25" cy="25" r="24" stroke="#292929" stroke-width="2"/>
<path d="M49 25C49 27.7093 46.6786 30.4556 42.2449 32.5838C37.8833 34.6773 31.7875 36 25 36C18.2125 36 12.1167 34.6773 7.75506 32.5838C3.32138 30.4556 1 27.7093 1 25C1 22.2907 3.32138 19.5444 7.75506 17.4162C12.1167 15.3227 18.2125 14 25 14C31.7875 14 37.8833 15.3227 42.2449 17.4162C46.6786 19.5444 49 22.2907 49 25Z" stroke="#292929" stroke-width="2"/>
<path d="M49 25C49 25.2364 48.7691 25.7694 47.5419 26.4657C46.3937 27.1172 44.6659 27.7371 42.4443 28.2703C38.0168 29.3329 31.8488 30 25 30C18.1512 30 11.9832 29.3329 7.5557 28.2703C5.33407 27.7371 3.60627 27.1172 2.45813 26.4657C1.23093 25.7694 1 25.2364 1 25C1 24.7636 1.23093 24.2306 2.45813 23.5343C3.60627 22.8828 5.33407 22.2629 7.5557 21.7297C11.9832 20.6671 18.1512 20 25 20C31.8488 20 38.0168 20.6671 42.4443 21.7297C44.6659 22.2629 46.3937 22.8828 47.5419 23.5343C48.7691 24.2306 49 24.7636 49 25Z" stroke="#292929" stroke-width="2"/>
<path d="M49 25C49 29.5673 46.4306 33.7936 42.0934 36.9164C37.7576 40.0381 31.7174 42 25 42C18.2826 42 12.2424 40.0381 7.90664 36.9164C3.5694 33.7936 1 29.5673 1 25C1 20.4327 3.5694 16.2064 7.90664 13.0836C12.2424 9.96187 18.2826 8 25 8C31.7174 8 37.7576 9.96187 42.0934 13.0836C46.4306 16.2064 49 20.4327 49 25Z" stroke="#292929" stroke-width="2"/>
</svg>
