<svg width="342" height="60" viewBox="0 0 342 60" fill="none" xmlns="http://www.w3.org/2000/svg">
<path d="M103.546 24.988C103.546 23.62 103.356 22.4927 102.976 21.606C102.596 20.694 102.051 20.0227 101.342 19.592C100.658 19.136 99.8347 18.9207 98.872 18.946H97.048V36.768C97.048 37.452 97.0353 38.1107 97.01 38.744C96.9847 39.3773 96.9467 39.8587 96.896 40.188C97.3267 40.1373 97.8713 40.112 98.53 40.112C99.214 40.0867 99.6827 40.074 99.936 40.074V43H88.84V40.492C89.4227 40.4667 89.904 40.3907 90.284 40.264C90.6893 40.1373 90.9933 39.846 91.196 39.39C91.424 38.934 91.538 38.1993 91.538 37.186V18.984H89.79C88.346 19.0093 87.206 19.5033 86.37 20.466C85.534 21.4287 85.116 22.936 85.116 24.988H82.608L82.798 16.4H105.826L106.054 24.988H103.546ZM117.612 43C117.562 42.6453 117.524 42.354 117.498 42.126C117.498 41.8727 117.486 41.5813 117.46 41.252C116.599 42.1133 115.687 42.7213 114.724 43.076C113.762 43.4307 112.786 43.608 111.798 43.608C110.177 43.608 108.91 43.1267 107.998 42.164C107.086 41.2013 106.63 39.998 106.63 38.554C106.63 37.338 106.934 36.2993 107.542 35.438C108.176 34.5767 108.999 33.88 110.012 33.348C111.051 32.7907 112.191 32.3727 113.432 32.094C114.699 31.79 115.966 31.6127 117.232 31.562V29.586C117.232 28.9273 117.144 28.332 116.966 27.8C116.814 27.268 116.536 26.85 116.13 26.546C115.75 26.242 115.206 26.1027 114.496 26.128C114.015 26.1533 113.546 26.2547 113.09 26.432C112.634 26.6093 112.242 26.8627 111.912 27.192C112.115 27.42 112.242 27.6733 112.292 27.952C112.343 28.2053 112.368 28.4333 112.368 28.636C112.368 29.1427 112.166 29.6747 111.76 30.232C111.355 30.764 110.709 31.0173 109.822 30.992C109.062 30.9667 108.48 30.7007 108.074 30.194C107.669 29.6873 107.466 29.092 107.466 28.408C107.466 27.3947 107.821 26.5207 108.53 25.786C109.265 25.026 110.24 24.4433 111.456 24.038C112.672 23.6073 114.015 23.392 115.484 23.392C117.714 23.392 119.436 23.9747 120.652 25.14C121.894 26.28 122.514 28.1167 122.514 30.65C122.514 31.5113 122.514 32.246 122.514 32.854C122.514 33.462 122.502 34.07 122.476 34.678C122.476 35.286 122.476 36.0207 122.476 36.882C122.476 37.2367 122.464 37.7433 122.438 38.402C122.413 39.0353 122.375 39.6433 122.324 40.226C122.755 40.1753 123.211 40.15 123.692 40.15C124.174 40.1247 124.541 40.112 124.794 40.112V43H117.612ZM117.194 34.26C116.485 34.336 115.814 34.4627 115.18 34.64C114.547 34.8173 113.99 35.058 113.508 35.362C113.052 35.666 112.685 36.0333 112.406 36.464C112.153 36.8947 112.026 37.376 112.026 37.908C112.052 38.6173 112.28 39.124 112.71 39.428C113.141 39.732 113.635 39.884 114.192 39.884C114.775 39.884 115.32 39.7573 115.826 39.504C116.333 39.2507 116.789 38.9213 117.194 38.516C117.194 38.2627 117.194 38.022 117.194 37.794C117.194 37.5407 117.194 37.2873 117.194 37.034C117.194 36.578 117.194 36.122 117.194 35.666C117.194 35.1847 117.194 34.716 117.194 34.26ZM126.368 43V40.53C127.077 40.53 127.584 40.3907 127.888 40.112C128.217 39.8333 128.42 39.4407 128.496 38.934C128.597 38.402 128.648 37.8067 128.648 37.148V21.53C128.648 21.074 128.661 20.5547 128.686 19.972C128.711 19.364 128.749 18.7813 128.8 18.224C128.395 18.2493 127.913 18.2747 127.356 18.3C126.824 18.3 126.419 18.3127 126.14 18.338V15.45C127.305 15.45 128.281 15.3867 129.066 15.26C129.877 15.1333 130.523 14.9813 131.004 14.804C131.485 14.6267 131.802 14.462 131.954 14.31H134.044V31.638H135.868L138.604 28.484C138.933 28.1293 139.199 27.8253 139.402 27.572C139.63 27.3187 139.858 27.0907 140.086 26.888H138.072V24H146.622V26.432C145.735 26.5333 144.95 26.7487 144.266 27.078C143.582 27.382 142.987 27.7493 142.48 28.18C141.999 28.6107 141.581 29.0287 141.226 29.434L138.794 32.17C139.174 32.3473 139.541 32.6133 139.896 32.968C140.276 33.2973 140.732 33.8167 141.264 34.526L143.81 37.87C143.962 38.0473 144.152 38.288 144.38 38.592C144.633 38.896 144.912 39.2 145.216 39.504C145.52 39.7827 145.849 40.0233 146.204 40.226C146.559 40.4287 146.926 40.53 147.306 40.53V43H142.936C142.125 43 141.416 42.7213 140.808 42.164C140.2 41.5813 139.503 40.758 138.718 39.694C138.262 39.086 137.781 38.44 137.274 37.756C136.793 37.0467 136.337 36.388 135.906 35.78C135.501 35.1467 135.171 34.6527 134.918 34.298L134.044 34.336V36.882C134.044 37.2367 134.031 37.7433 134.006 38.402C133.981 39.0353 133.943 39.6433 133.892 40.226C134.297 40.1753 134.741 40.15 135.222 40.15C135.703 40.1247 136.083 40.112 136.362 40.112V43H126.368ZM157.617 43.608C155.767 43.608 154.133 43.2027 152.715 42.392C151.296 41.556 150.194 40.3907 149.409 38.896C148.623 37.376 148.231 35.59 148.231 33.538C148.231 31.7647 148.623 30.1053 149.409 28.56C150.194 27.0147 151.296 25.7733 152.715 24.836C154.159 23.8733 155.831 23.392 157.731 23.392C158.795 23.392 159.833 23.544 160.847 23.848C161.86 24.1267 162.772 24.6207 163.583 25.33C164.419 26.0393 165.077 27.002 165.559 28.218C166.065 29.434 166.306 30.954 166.281 32.778L153.817 33.006C153.817 34.374 153.981 35.6027 154.311 36.692C154.665 37.7813 155.235 38.6427 156.021 39.276C156.806 39.9093 157.857 40.226 159.175 40.226C159.681 40.226 160.251 40.1373 160.885 39.96C161.543 39.7827 162.202 39.4913 162.861 39.086C163.545 38.6553 164.178 38.0853 164.761 37.376L166.471 38.972C165.559 40.264 164.583 41.252 163.545 41.936C162.506 42.5947 161.467 43.038 160.429 43.266C159.415 43.494 158.478 43.608 157.617 43.608ZM154.045 30.346H161.037C161.011 29.282 160.859 28.446 160.581 27.838C160.327 27.2047 159.973 26.7487 159.517 26.47C159.061 26.1913 158.529 26.052 157.921 26.052C156.806 26.052 155.932 26.4573 155.299 27.268C154.665 28.0533 154.247 29.0793 154.045 30.346ZM187.525 24.988C187.525 23.62 187.335 22.4927 186.955 21.606C186.575 20.694 186.03 20.0227 185.321 19.592C184.637 19.136 183.813 18.9207 182.851 18.946H181.027V36.768C181.027 37.452 181.014 38.1107 180.989 38.744C180.963 39.3773 180.925 39.8587 180.875 40.188C181.305 40.1373 181.85 40.112 182.509 40.112C183.193 40.0867 183.661 40.074 183.915 40.074V43H172.819V40.492C173.401 40.4667 173.883 40.3907 174.263 40.264C174.668 40.1373 174.972 39.846 175.175 39.39C175.403 38.934 175.517 38.1993 175.517 37.186V18.984H173.769C172.325 19.0093 171.185 19.5033 170.349 20.466C169.513 21.4287 169.095 22.936 169.095 24.988H166.587L166.777 16.4H189.805L190.033 24.988H187.525ZM192.103 40.53C192.812 40.53 193.319 40.3907 193.623 40.112C193.927 39.8333 194.117 39.4407 194.193 38.934C194.294 38.402 194.345 37.8067 194.345 37.148V30.84C194.345 30.384 194.358 29.8647 194.383 29.282C194.408 28.674 194.446 28.0913 194.497 27.534C194.092 27.5593 193.61 27.5847 193.053 27.61C192.521 27.61 192.116 27.6227 191.837 27.648V24.76C193.002 24.76 193.99 24.6967 194.801 24.57C195.612 24.4433 196.245 24.2913 196.701 24.114C197.182 23.9367 197.512 23.772 197.689 23.62H199.741V36.882C199.741 37.2367 199.728 37.7433 199.703 38.402C199.678 39.0353 199.64 39.6433 199.589 40.226C199.994 40.1753 200.438 40.15 200.919 40.15C201.426 40.1247 201.806 40.112 202.059 40.112V43H192.103V40.53ZM196.853 20.618C195.992 20.618 195.282 20.314 194.725 19.706C194.168 19.098 193.889 18.3633 193.889 17.502C193.889 16.6407 194.18 15.906 194.763 15.298C195.346 14.69 196.03 14.386 196.815 14.386C197.626 14.386 198.297 14.69 198.829 15.298C199.386 15.906 199.665 16.6407 199.665 17.502C199.665 18.3633 199.412 19.098 198.905 19.706C198.398 20.314 197.714 20.618 196.853 20.618ZM204.535 43V40.53C205.244 40.53 205.751 40.3907 206.055 40.112C206.359 39.8333 206.549 39.4407 206.625 38.934C206.726 38.402 206.777 37.8067 206.777 37.148V30.764C206.777 30.308 206.789 29.8013 206.815 29.244C206.84 28.6613 206.878 28.0913 206.929 27.534C206.523 27.5593 206.042 27.5847 205.485 27.61C204.953 27.61 204.547 27.6227 204.269 27.648V24.76C205.434 24.76 206.422 24.6967 207.233 24.57C208.043 24.4433 208.677 24.2913 209.133 24.114C209.614 23.9367 209.943 23.772 210.121 23.62H211.983C212.033 23.8733 212.059 24.19 212.059 24.57C212.084 24.95 212.109 25.2667 212.135 25.52C212.996 24.8613 213.921 24.342 214.909 23.962C215.922 23.582 216.872 23.392 217.759 23.392C218.924 23.392 219.887 23.6073 220.647 24.038C221.407 24.4433 222.015 25.064 222.471 25.9C223.383 25.14 224.383 24.532 225.473 24.076C226.587 23.62 227.651 23.392 228.665 23.392C230.717 23.392 232.262 23.9873 233.301 25.178C234.365 26.3433 234.897 28.3827 234.897 31.296V36.882C234.897 37.2367 234.884 37.7433 234.859 38.402C234.833 39.0353 234.795 39.6433 234.745 40.226C235.15 40.1753 235.593 40.15 236.075 40.15C236.581 40.1247 236.961 40.112 237.215 40.112V43H227.601V40.53C228.183 40.53 228.601 40.3907 228.855 40.112C229.133 39.8333 229.311 39.4407 229.387 38.934C229.463 38.402 229.501 37.8067 229.501 37.148V31.334C229.475 29.6873 229.197 28.5473 228.665 27.914C228.158 27.2807 227.474 26.9513 226.613 26.926C225.954 26.9007 225.333 27.0147 224.751 27.268C224.193 27.5213 223.687 27.8253 223.231 28.18C223.357 28.6867 223.446 29.244 223.497 29.852C223.547 30.46 223.573 31.106 223.573 31.79C223.573 32.6513 223.573 33.5 223.573 34.336C223.573 35.172 223.573 36.0207 223.573 36.882C223.573 37.2367 223.56 37.7433 223.535 38.402C223.509 39.0353 223.471 39.6433 223.421 40.226C223.826 40.1753 224.269 40.15 224.751 40.15C225.232 40.1247 225.612 40.112 225.891 40.112V43H216.087V40.53C216.745 40.53 217.214 40.3907 217.493 40.112C217.797 39.8333 217.987 39.4407 218.063 38.934C218.139 38.402 218.177 37.8067 218.177 37.148L218.139 31.22C218.139 29.5733 217.898 28.446 217.417 27.838C216.935 27.23 216.264 26.9133 215.403 26.888C214.769 26.888 214.174 27.0273 213.617 27.306C213.085 27.5847 212.603 27.914 212.173 28.294C212.173 28.6233 212.173 28.94 212.173 29.244C212.173 29.548 212.173 29.8647 212.173 30.194V36.882C212.173 37.2367 212.16 37.7433 212.135 38.402C212.109 39.0353 212.071 39.6433 212.021 40.226C212.426 40.1753 212.844 40.15 213.275 40.15C213.705 40.1247 214.047 40.112 214.301 40.112V43H204.535ZM248.498 43.608C246.648 43.608 245.014 43.2027 243.596 42.392C242.177 41.556 241.075 40.3907 240.29 38.896C239.504 37.376 239.112 35.59 239.112 33.538C239.112 31.7647 239.504 30.1053 240.29 28.56C241.075 27.0147 242.177 25.7733 243.596 24.836C245.04 23.8733 246.712 23.392 248.612 23.392C249.676 23.392 250.714 23.544 251.728 23.848C252.741 24.1267 253.653 24.6207 254.464 25.33C255.3 26.0393 255.958 27.002 256.44 28.218C256.946 29.434 257.187 30.954 257.162 32.778L244.698 33.006C244.698 34.374 244.862 35.6027 245.192 36.692C245.546 37.7813 246.116 38.6427 246.902 39.276C247.687 39.9093 248.738 40.226 250.056 40.226C250.562 40.226 251.132 40.1373 251.766 39.96C252.424 39.7827 253.083 39.4913 253.742 39.086C254.426 38.6553 255.059 38.0853 255.642 37.376L257.352 38.972C256.44 40.264 255.464 41.252 254.426 41.936C253.387 42.5947 252.348 43.038 251.31 43.266C250.296 43.494 249.359 43.608 248.498 43.608ZM244.926 30.346H251.918C251.892 29.282 251.74 28.446 251.462 27.838C251.208 27.2047 250.854 26.7487 250.398 26.47C249.942 26.1913 249.41 26.052 248.802 26.052C247.687 26.052 246.813 26.4573 246.18 27.268C245.546 28.0533 245.128 29.0793 244.926 30.346ZM280.485 43C280.435 42.6453 280.397 42.354 280.371 42.126C280.371 41.8727 280.359 41.5813 280.333 41.252C279.472 42.1133 278.56 42.7213 277.597 43.076C276.635 43.4307 275.659 43.608 274.671 43.608C273.05 43.608 271.783 43.1267 270.871 42.164C269.959 41.2013 269.503 39.998 269.503 38.554C269.503 37.338 269.807 36.2993 270.415 35.438C271.049 34.5767 271.872 33.88 272.885 33.348C273.924 32.7907 275.064 32.3727 276.305 32.094C277.572 31.79 278.839 31.6127 280.105 31.562V29.586C280.105 28.9273 280.017 28.332 279.839 27.8C279.687 27.268 279.409 26.85 279.003 26.546C278.623 26.242 278.079 26.1027 277.369 26.128C276.888 26.1533 276.419 26.2547 275.963 26.432C275.507 26.6093 275.115 26.8627 274.785 27.192C274.988 27.42 275.115 27.6733 275.165 27.952C275.216 28.2053 275.241 28.4333 275.241 28.636C275.241 29.1427 275.039 29.6747 274.633 30.232C274.228 30.764 273.582 31.0173 272.695 30.992C271.935 30.9667 271.353 30.7007 270.947 30.194C270.542 29.6873 270.339 29.092 270.339 28.408C270.339 27.3947 270.694 26.5207 271.403 25.786C272.138 25.026 273.113 24.4433 274.329 24.038C275.545 23.6073 276.888 23.392 278.357 23.392C280.587 23.392 282.309 23.9747 283.525 25.14C284.767 26.28 285.387 28.1167 285.387 30.65C285.387 31.5113 285.387 32.246 285.387 32.854C285.387 33.462 285.375 34.07 285.349 34.678C285.349 35.286 285.349 36.0207 285.349 36.882C285.349 37.2367 285.337 37.7433 285.311 38.402C285.286 39.0353 285.248 39.6433 285.197 40.226C285.628 40.1753 286.084 40.15 286.565 40.15C287.047 40.1247 287.414 40.112 287.667 40.112V43H280.485ZM280.067 34.26C279.358 34.336 278.687 34.4627 278.053 34.64C277.42 34.8173 276.863 35.058 276.381 35.362C275.925 35.666 275.558 36.0333 275.279 36.464C275.026 36.8947 274.899 37.376 274.899 37.908C274.925 38.6173 275.153 39.124 275.583 39.428C276.014 39.732 276.508 39.884 277.065 39.884C277.648 39.884 278.193 39.7573 278.699 39.504C279.206 39.2507 279.662 38.9213 280.067 38.516C280.067 38.2627 280.067 38.022 280.067 37.794C280.067 37.5407 280.067 37.2873 280.067 37.034C280.067 36.578 280.067 36.122 280.067 35.666C280.067 35.1847 280.067 34.716 280.067 34.26ZM289.469 52.69V50.22C290.178 50.22 290.685 50.0807 290.989 49.802C291.318 49.5233 291.521 49.118 291.597 48.586C291.698 48.0793 291.749 47.4967 291.749 46.838V30.764C291.749 30.308 291.762 29.8013 291.787 29.244C291.812 28.6613 291.85 28.0913 291.901 27.534C291.496 27.5593 291.014 27.5847 290.457 27.61C289.9 27.61 289.482 27.6227 289.203 27.648V24.76C290.394 24.76 291.382 24.6967 292.167 24.57C292.978 24.4433 293.611 24.2913 294.067 24.114C294.548 23.9367 294.878 23.772 295.055 23.62H296.917C296.968 23.8733 297.006 24.19 297.031 24.57C297.056 24.9247 297.082 25.216 297.107 25.444C297.994 24.684 298.868 24.152 299.729 23.848C300.616 23.544 301.452 23.392 302.237 23.392C303.757 23.392 305.087 23.7847 306.227 24.57C307.392 25.3553 308.292 26.47 308.925 27.914C309.584 29.358 309.913 31.0553 309.913 33.006C309.913 35.0327 309.52 36.8567 308.735 38.478C307.95 40.074 306.848 41.328 305.429 42.24C304.036 43.152 302.389 43.608 300.489 43.608C299.805 43.608 299.184 43.532 298.627 43.38C298.095 43.2533 297.588 43.1013 297.107 42.924V46.572C297.107 46.9267 297.094 47.4207 297.069 48.054C297.069 48.7127 297.044 49.3333 296.993 49.916C297.398 49.8653 297.842 49.8273 298.323 49.802C298.804 49.802 299.172 49.802 299.425 49.802V52.69H289.469ZM299.881 40.758C301.046 40.7327 301.946 40.3907 302.579 39.732C303.238 39.048 303.694 38.1613 303.947 37.072C304.2 35.9827 304.327 34.8173 304.327 33.576C304.327 32.4107 304.188 31.3087 303.909 30.27C303.63 29.2313 303.187 28.3953 302.579 27.762C301.971 27.1033 301.173 26.7867 300.185 26.812C299.552 26.8373 298.969 27.002 298.437 27.306C297.905 27.5847 297.462 27.9773 297.107 28.484C297.107 29.2693 297.107 30.0547 297.107 30.84C297.107 31.6 297.107 32.36 297.107 33.12C297.107 33.88 297.107 34.6527 297.107 35.438C297.107 36.198 297.107 36.9707 297.107 37.756C297.107 38.516 297.107 39.2887 297.107 40.074C297.386 40.2513 297.778 40.416 298.285 40.568C298.792 40.72 299.324 40.7833 299.881 40.758ZM312.291 52.69V50.22C313.001 50.22 313.507 50.0807 313.811 49.802C314.141 49.5233 314.343 49.118 314.419 48.586C314.521 48.0793 314.571 47.4967 314.571 46.838V30.764C314.571 30.308 314.584 29.8013 314.609 29.244C314.635 28.6613 314.673 28.0913 314.723 27.534C314.318 27.5593 313.837 27.5847 313.279 27.61C312.722 27.61 312.304 27.6227 312.025 27.648V24.76C313.216 24.76 314.204 24.6967 314.989 24.57C315.8 24.4433 316.433 24.2913 316.889 24.114C317.371 23.9367 317.7 23.772 317.877 23.62H319.739C319.79 23.8733 319.828 24.19 319.853 24.57C319.879 24.9247 319.904 25.216 319.929 25.444C320.816 24.684 321.69 24.152 322.551 23.848C323.438 23.544 324.274 23.392 325.059 23.392C326.579 23.392 327.909 23.7847 329.049 24.57C330.215 25.3553 331.114 26.47 331.747 27.914C332.406 29.358 332.735 31.0553 332.735 33.006C332.735 35.0327 332.343 36.8567 331.557 38.478C330.772 40.074 329.67 41.328 328.251 42.24C326.858 43.152 325.211 43.608 323.311 43.608C322.627 43.608 322.007 43.532 321.449 43.38C320.917 43.2533 320.411 43.1013 319.929 42.924V46.572C319.929 46.9267 319.917 47.4207 319.891 48.054C319.891 48.7127 319.866 49.3333 319.815 49.916C320.221 49.8653 320.664 49.8273 321.145 49.802C321.627 49.802 321.994 49.802 322.247 49.802V52.69H312.291ZM322.703 40.758C323.869 40.7327 324.768 40.3907 325.401 39.732C326.06 39.048 326.516 38.1613 326.769 37.072C327.023 35.9827 327.149 34.8173 327.149 33.576C327.149 32.4107 327.01 31.3087 326.731 30.27C326.453 29.2313 326.009 28.3953 325.401 27.762C324.793 27.1033 323.995 26.7867 323.007 26.812C322.374 26.8373 321.791 27.002 321.259 27.306C320.727 27.5847 320.284 27.9773 319.929 28.484C319.929 29.2693 319.929 30.0547 319.929 30.84C319.929 31.6 319.929 32.36 319.929 33.12C319.929 33.88 319.929 34.6527 319.929 35.438C319.929 36.198 319.929 36.9707 319.929 37.756C319.929 38.516 319.929 39.2887 319.929 40.074C320.208 40.2513 320.601 40.416 321.107 40.568C321.614 40.72 322.146 40.7833 322.703 40.758Z" fill="#543786"/>
<path d="M32.5962 11.1667V29.5H47.2912M61.9862 29.5C61.9862 33.1114 61.226 36.6873 59.7491 40.0238C58.2721 43.3602 56.1072 46.3918 53.3781 48.9454C50.649 51.499 47.4091 53.5247 43.8433 54.9067C40.2775 56.2887 36.4558 57 32.5962 57C28.7367 57 24.9149 56.2887 21.3491 54.9067C17.7834 53.5247 14.5434 51.499 11.8143 48.9454C9.0852 46.3918 6.92035 43.3602 5.44336 40.0238C3.96637 36.6873 3.20618 33.1114 3.20618 29.5C3.20618 22.2065 6.30262 15.2118 11.8143 10.0546C17.326 4.89731 24.8015 2 32.5962 2C40.3909 2 47.8664 4.89731 53.3781 10.0546C58.8898 15.2118 61.9862 22.2065 61.9862 29.5Z" stroke="#543786" stroke-width="4" stroke-linecap="round" stroke-linejoin="round"/>
</svg>
