<svg width="261" height="64" viewBox="0 0 261 64" fill="none" xmlns="http://www.w3.org/2000/svg">
<path d="M87.968 46V23.58H79.152V19.4H101.724V23.58H92.908V46H87.968ZM112.017 46.266C109.94 46.266 108.091 45.8227 106.469 44.936C104.848 44.024 103.569 42.7827 102.631 41.212C101.694 39.6413 101.225 37.8553 101.225 35.854C101.225 33.8273 101.694 32.0413 102.631 30.496C103.569 28.9253 104.848 27.6967 106.469 26.81C108.091 25.9233 109.94 25.48 112.017 25.48C114.12 25.48 115.982 25.9233 117.603 26.81C119.25 27.6967 120.529 28.9127 121.441 30.458C122.379 32.0033 122.847 33.802 122.847 35.854C122.847 37.8553 122.379 39.6413 121.441 41.212C120.529 42.7827 119.25 44.024 117.603 44.936C115.982 45.8227 114.12 46.266 112.017 46.266ZM112.017 42.2C113.183 42.2 114.221 41.9467 115.133 41.44C116.045 40.9333 116.755 40.1987 117.261 39.236C117.793 38.2733 118.059 37.146 118.059 35.854C118.059 34.5367 117.793 33.4093 117.261 32.472C116.755 31.5093 116.045 30.7747 115.133 30.268C114.221 29.7613 113.195 29.508 112.055 29.508C110.89 29.508 109.851 29.7613 108.939 30.268C108.053 30.7747 107.343 31.5093 106.811 32.472C106.279 33.4093 106.013 34.5367 106.013 35.854C106.013 37.146 106.279 38.2733 106.811 39.236C107.343 40.1987 108.053 40.9333 108.939 41.44C109.851 41.9467 110.877 42.2 112.017 42.2ZM135.977 46.266C134.027 46.266 132.266 45.8353 130.695 44.974C129.15 44.0873 127.934 42.8713 127.047 41.326C126.161 39.7807 125.717 37.9567 125.717 35.854C125.717 33.7513 126.161 31.9273 127.047 30.382C127.934 28.8367 129.15 27.6333 130.695 26.772C132.266 25.9107 134.027 25.48 135.977 25.48C137.675 25.48 139.195 25.86 140.537 26.62C141.88 27.3547 142.944 28.482 143.729 30.002C144.515 31.522 144.907 33.4727 144.907 35.854C144.907 38.21 144.527 40.1607 143.767 41.706C143.007 43.226 141.956 44.366 140.613 45.126C139.271 45.886 137.725 46.266 135.977 46.266ZM136.547 42.2C137.687 42.2 138.701 41.9467 139.587 41.44C140.499 40.9333 141.221 40.1987 141.753 39.236C142.311 38.2733 142.589 37.146 142.589 35.854C142.589 34.5367 142.311 33.4093 141.753 32.472C141.221 31.5093 140.499 30.7747 139.587 30.268C138.701 29.7613 137.687 29.508 136.547 29.508C135.407 29.508 134.381 29.7613 133.469 30.268C132.583 30.7747 131.861 31.5093 131.303 32.472C130.771 33.4093 130.505 34.5367 130.505 35.854C130.505 37.146 130.771 38.2733 131.303 39.236C131.861 40.1987 132.583 40.9333 133.469 41.44C134.381 41.9467 135.407 42.2 136.547 42.2ZM142.703 46V41.212L142.893 35.816L142.513 30.42V17.804H147.225V46H142.703ZM162.597 46.266C160.52 46.266 158.671 45.8227 157.049 44.936C155.428 44.024 154.149 42.7827 153.211 41.212C152.274 39.6413 151.805 37.8553 151.805 35.854C151.805 33.8273 152.274 32.0413 153.211 30.496C154.149 28.9253 155.428 27.6967 157.049 26.81C158.671 25.9233 160.52 25.48 162.597 25.48C164.7 25.48 166.562 25.9233 168.183 26.81C169.83 27.6967 171.109 28.9127 172.021 30.458C172.959 32.0033 173.427 33.802 173.427 35.854C173.427 37.8553 172.959 39.6413 172.021 41.212C171.109 42.7827 169.83 44.024 168.183 44.936C166.562 45.8227 164.7 46.266 162.597 46.266ZM162.597 42.2C163.763 42.2 164.801 41.9467 165.713 41.44C166.625 40.9333 167.335 40.1987 167.841 39.236C168.373 38.2733 168.639 37.146 168.639 35.854C168.639 34.5367 168.373 33.4093 167.841 32.472C167.335 31.5093 166.625 30.7747 165.713 30.268C164.801 29.7613 163.775 29.508 162.635 29.508C161.47 29.508 160.431 29.7613 159.519 30.268C158.633 30.7747 157.923 31.5093 157.391 32.472C156.859 33.4093 156.593 34.5367 156.593 35.854C156.593 37.146 156.859 38.2733 157.391 39.236C157.923 40.1987 158.633 40.9333 159.519 41.44C160.431 41.9467 161.457 42.2 162.597 42.2ZM200.973 46V41.896L200.707 41.022V33.84C200.707 32.4467 200.289 31.37 199.453 30.61C198.617 29.8247 197.351 29.432 195.653 29.432C194.513 29.432 193.386 29.6093 192.271 29.964C191.182 30.3187 190.257 30.8127 189.497 31.446L187.635 27.988C188.725 27.152 190.017 26.5313 191.511 26.126C193.031 25.6953 194.602 25.48 196.223 25.48C199.162 25.48 201.429 26.1893 203.025 27.608C204.647 29.0013 205.457 31.1673 205.457 34.106V46H200.973ZM194.589 46.266C193.069 46.266 191.739 46.0127 190.599 45.506C189.459 44.974 188.573 44.252 187.939 43.34C187.331 42.4027 187.027 41.3513 187.027 40.186C187.027 39.046 187.293 38.02 187.825 37.108C188.383 36.196 189.282 35.474 190.523 34.942C191.765 34.41 193.411 34.144 195.463 34.144H201.353V37.298H195.805C194.184 37.298 193.095 37.564 192.537 38.096C191.98 38.6027 191.701 39.236 191.701 39.996C191.701 40.8573 192.043 41.5413 192.727 42.048C193.411 42.5547 194.361 42.808 195.577 42.808C196.743 42.808 197.781 42.542 198.693 42.01C199.631 41.478 200.302 40.6927 200.707 39.654L201.505 42.504C201.049 43.6947 200.226 44.6193 199.035 45.278C197.87 45.9367 196.388 46.266 194.589 46.266ZM222.802 46.266C221.155 46.266 219.648 45.886 218.28 45.126C216.937 44.366 215.86 43.226 215.05 41.706C214.264 40.1607 213.872 38.21 213.872 35.854C213.872 33.4727 214.252 31.522 215.012 30.002C215.797 28.482 216.861 27.3547 218.203 26.62C219.546 25.86 221.079 25.48 222.802 25.48C224.803 25.48 226.564 25.9107 228.084 26.772C229.629 27.6333 230.845 28.8367 231.732 30.382C232.644 31.9273 233.1 33.7513 233.1 35.854C233.1 37.9567 232.644 39.7933 231.732 41.364C230.845 42.9093 229.629 44.1127 228.084 44.974C226.564 45.8353 224.803 46.266 222.802 46.266ZM211.554 53.372V25.708H216.076V30.496L215.924 35.892L216.304 41.288V53.372H211.554ZM222.27 42.2C223.41 42.2 224.423 41.9467 225.31 41.44C226.222 40.9333 226.944 40.1987 227.476 39.236C228.008 38.2733 228.274 37.146 228.274 35.854C228.274 34.5367 228.008 33.4093 227.476 32.472C226.944 31.5093 226.222 30.7747 225.31 30.268C224.423 29.7613 223.41 29.508 222.27 29.508C221.13 29.508 220.104 29.7613 219.192 30.268C218.28 30.7747 217.558 31.5093 217.026 32.472C216.494 33.4093 216.228 34.5367 216.228 35.854C216.228 37.146 216.494 38.2733 217.026 39.236C217.558 40.1987 218.28 40.9333 219.192 41.44C220.104 41.9467 221.13 42.2 222.27 42.2ZM248.852 46.266C247.206 46.266 245.698 45.886 244.33 45.126C242.988 44.366 241.911 43.226 241.1 41.706C240.315 40.1607 239.922 38.21 239.922 35.854C239.922 33.4727 240.302 31.522 241.062 30.002C241.848 28.482 242.912 27.3547 244.254 26.62C245.597 25.86 247.13 25.48 248.852 25.48C250.854 25.48 252.614 25.9107 254.134 26.772C255.68 27.6333 256.896 28.8367 257.782 30.382C258.694 31.9273 259.15 33.7513 259.15 35.854C259.15 37.9567 258.694 39.7933 257.782 41.364C256.896 42.9093 255.68 44.1127 254.134 44.974C252.614 45.8353 250.854 46.266 248.852 46.266ZM237.604 53.372V25.708H242.126V30.496L241.974 35.892L242.354 41.288V53.372H237.604ZM248.32 42.2C249.46 42.2 250.474 41.9467 251.36 41.44C252.272 40.9333 252.994 40.1987 253.526 39.236C254.058 38.2733 254.324 37.146 254.324 35.854C254.324 34.5367 254.058 33.4093 253.526 32.472C252.994 31.5093 252.272 30.7747 251.36 30.268C250.474 29.7613 249.46 29.508 248.32 29.508C247.18 29.508 246.154 29.7613 245.242 30.268C244.33 30.7747 243.608 31.5093 243.076 32.472C242.544 33.4093 242.278 34.5367 242.278 35.854C242.278 37.146 242.544 38.2733 243.076 39.236C243.608 40.1987 244.33 40.9333 245.242 41.44C246.154 41.9467 247.18 42.2 248.32 42.2Z" fill="#1D40BA"/>
<path d="M15.2061 32.0695C14.383 31.2464 14.383 29.9118 15.2061 29.0887C16.0292 28.2656 17.3638 28.2656 18.187 29.0887L26.652 37.5536L44.4298 19.7756C45.2529 18.9525 46.5875 18.9525 47.4106 19.7756C48.2339 20.5987 48.2339 21.9333 47.4106 22.7565L28.2668 41.9003C27.3743 42.7929 25.9269 42.7929 25.0344 41.9003L15.2061 32.0695Z" fill="#1D40BA"/>
<path fill-rule="evenodd" clip-rule="evenodd" d="M32.0001 2.28571C15.5893 2.28571 2.28577 15.5892 2.28577 32C2.28577 48.4107 15.5893 61.7143 32.0001 61.7143C48.4108 61.7143 61.7143 48.4107 61.7143 32C61.7143 15.5892 48.4108 2.28571 32.0001 2.28571ZM6.8572 32C6.8572 18.114 18.114 6.85713 32.0001 6.85713C45.886 6.85713 57.1429 18.114 57.1429 32C57.1429 45.8859 45.886 57.1429 32.0001 57.1429C18.114 57.1429 6.8572 45.8859 6.8572 32Z" fill="#1D40BA"/>
</svg>
